<?xml version="1.0" encoding="utf-8"?>
<!-- Generator: Adobe Illustrator 21.0.0, SVG Export Plug-In . SVG Version: 6.00 Build 0)  -->
<svg version="1.1" id="Calque_1" xmlns="http://www.w3.org/2000/svg" xmlns:xlink="http://www.w3.org/1999/xlink" x="0px" y="0px"
	 viewBox="0 0 211 41" style="enable-background:new 0 0 211 41;" xml:space="preserve">
<style type="text/css">
	.st0{fill:url(#SVGID_1_);}
	.st1{fill:#FFFFFF;}
	.st2{fill:#B9B9BA;}
</style>
<g>
	
		<linearGradient id="SVGID_1_" gradientUnits="userSpaceOnUse" x1="0.2305" y1="24.0557" x2="68.0957" y2="24.0557" gradientTransform="matrix(1 0 0 -1 0 42)">
		<stop  offset="0" style="stop-color:#7D2C6C"/>
		<stop  offset="0.2472" style="stop-color:#AA267B"/>
		<stop  offset="0.8146" style="stop-color:#DF242F"/>
		<stop  offset="1" style="stop-color:#DF242F"/>
	</linearGradient>
	<path class="st0" d="M1.5,0.2c-0.8,0-1.3,0.4-1.3,1.1v33.3c0,0.6,0.4,1.1,1.1,1.1h59.4c0.5,0,0.9,0,1.2-0.8c0,0,6-18.9,6.1-19.2
		c0.2-0.7,0.1-1.1-0.5-1.5C48.2,1.9,19.2,0.1,6.1,0.1C4.2,0.1,2.7,0.2,1.5,0.2z"/>
	<path class="st1" d="M13.8,21.5c-2.2-1-3.7-1.6-3.3-2.7c0.4-1.3,2.6-1.8,4.6-1.7c1,0,1.7,0.1,2.6,0.4l0.7-2.3c-1-0.2-1.8-0.3-3-0.3
		c-4-0.1-7.6,1-8.5,3.3c-1.1,2.7,2,4.3,4.7,5.6c2.2,1,3.8,2,3.2,3.2c-0.4,1-2,1.4-4.2,1.4c-1.9,0-4.3-0.6-6.2-1.5l-1.1,2.4
		c1.4,0.6,4.2,1.5,6.6,1.6c4.5,0.1,7.5-1,8.7-3.5C20,24.4,16.6,22.9,13.8,21.5z"/>
	<path class="st1" d="M20,25.6c0,0,0,0.1,0.1,0.1c0,0,0.1,0,0.1-0.1c0-0.1,2.2-6.9,2.2-6.9c2.2,3.2,4.4,7.4,5.7,11.9h3.6l1.8-5.7
		c0,0,0-0.1,0.1-0.1c0,0,0.1,0,0.1,0.1c0.5,3.5,4.1,5.9,9.1,5.9c3.2,0,6.2-0.9,6.9-1.2l1.9-6h7.3l0.7-2.3h-7.3l1.3-3.9h8.7l0.8-2.4
		H50.8L46.7,28c-0.9,0.2-2,0.3-3.1,0.3c-2.4,0-4.4-0.6-5.5-1.9c-0.8-1-1.2-2.2-0.9-3.6c0.5-3.3,3.7-5.4,8-5.4c0.9,0,1.8,0,2.7,0.2
		l0.9-2.5c-1-0.2-2.3-0.2-3.5-0.2c-3.8,0-7.2,1.3-9.3,3.6c0,0.1-0.1,0.1-0.2,0.1s-0.1,0-0.1-0.1l1.1-3.4h-3.2L30,26
		c-1.1-3.2-3.4-7.5-6.2-10.9h-3.4l-2.5,8C19.2,24,19.6,24.7,20,25.6z"/>
	<g>
		<path class="st2" d="M175.6,27.7c-1.1,0-2.2,0.3-3.4,0.3c-0.8,0-1.2,1.3-0.2,1.3c1.1,0,2.2-0.3,3.4-0.3
			C176.2,29,176.5,27.7,175.6,27.7z"/>
		<path class="st2" d="M122.7,25.6c-0.7,0.6-1.2,1.3-1.5,2c-0.3,0-0.6,0-0.7,0.3c-0.3,0.4-0.5,0.8-0.8,1.2c-0.2,0.3-0.6,0.9-1.1,0.6
			c-0.2-0.1-0.3-0.4-0.3-0.7c0-0.3,0-0.7,0-1c0-0.4,0-0.8,0-1.2c0-0.3,0-0.5-0.1-0.8c0,0,0,0,0-0.1c-0.1-0.4-0.6-0.4-0.9-0.2
			c0,0-0.3,0.2-0.4,0.2c0-0.6-0.2-1.3-0.6-1.7c-0.3-0.3-0.8-0.2-0.9,0.1c-0.6,0.9-0.6,2.4,0.1,3.3c0.1,0.1,0.2,0.2,0.3,0.2
			c0,0-0.1,0.2-0.1,0.2c-0.1,0.1-0.2,0.3-0.3,0.4c-0.4,0.6-0.9,1.1-1.7,1.2c-1,0-1.3-0.9-1.5-1.7c-0.1-0.4-0.1-0.8-0.2-1.2
			c0-0.3-0.2-0.6-0.3-0.8c-0.2-0.3-0.6-0.4-0.9-0.1c0,0,0,0,0,0c-0.1,0.1-0.2,0.3-0.3,0.4c-0.2,0.3-0.4,0.6-0.5,0.9
			c0-0.4-0.1-0.9-0.1-1.3s-0.6-0.5-0.9-0.3c-0.5,0.4-3.1,4.3-3.6,3.3c-0.4-0.9-0.2-2-0.8-2.9c-0.2-0.3-0.6-0.4-0.9-0.1
			c-0.2,0.2-0.4,0.4-0.5,0.6c0.2-0.6,0.1-1.2,0-1.8c-0.1-0.8-1.3-0.4-1.2,0.3c0.2,1-0.2,1.8-0.4,2.7c-0.5,0.4-1.1,0.9-1.7,1.3
			c-0.6,0.4-1.3,0.9-2,1.2c-0.4,0.1-1.2,0.4-1.6,0.1c-0.2-0.2-0.3-0.6-0.3-0.9c0.1-0.7,0.4-1.4,0.5-2.1c0-0.2,0-0.3-0.1-0.4
			c0.2,0,0.3-0.2,0.4-0.4c0.5-1.5-0.1-3.7-2.2-3.2c-2.2,0.6-3.8,2.5-5,4.4c-0.4,0.6-0.8,1.5-0.7,2.3c-0.6-0.2-2.7-2.2-3.2-2.6
			c-1-0.9-2.6-2.1-3.3-3.4c2.6-1.3,7.2-2.9,6-6.4c-0.8-2.2-4.5-3.1-6.8-2.6c-0.2-0.7-1.4-0.3-1.3,0.5c0,0,0,0.1,0,0.2
			c-0.1,0.3-0.1,0.6,0.1,0.7c0.4,4.6-1.8,9.3-1.4,13.9c0,0.6,0.9,0.8,1.2,0.2c0.1-0.3,0.3-0.6,0.4-0.9c0.2-0.4,0-0.8-0.4-0.9
			c0-4.2,1.8-8.4,1.5-12.6c1.8-0.4,4.2,0.3,5.3,1.6c2,2.5-4.3,4.6-5.8,5.4c-0.2,0.1-0.4,0.4-0.3,0.7c0.8,1.8,2.8,3.4,4.3,4.6
			c0.9,0.8,2.9,2.9,4.2,2.5c0,0,0,0,0.1,0c0.1,0.1,0.2,0.2,0.4,0.2c0.2,0.1,0.5,0.1,0.8,0.1c1.4,0,2.9-0.7,4-1.7c-0.1,1,0,2,1.3,2.1
			c2,0.1,3.6-1.3,5.3-2.2l-0.1,0.9c0,0.2,0,0.4,0,0.6c-0.2,2.2-1.2,7.3-1.2,9.6c0,0.8,1.2,0.7,1.2,0c0-1.8,0.5-4.3,0.8-6.1
			c0.2-1.5,0.9-5.4,1.7-6.7c0.2,1.1,0.3,2.5,1.3,2.8c1.8,0.5,3-1.6,3.9-2.8c0.1,1,0,2.3,0,2.8c0,1.2-0.5,5.1-0.6,6.2
			c-0.1,1.3-0.5,2.6-0.5,3.8c0,0,0,0.1,0,0.1c0,0.7,1.1,0.4,1.2-0.1c0.1-1.8,0.7-3.6,0.9-5.4c0-0.1,0-0.2,0-0.3
			c0.2-1.3,0.8-5.4,1.3-6.7c0,0,0,0.2,0,0.2c0.2,1.2,1.1,2.1,2.2,2.3c0.5,0.1,1.1,0.1,1.5-0.1c0.9-0.5,1.3-1.1,1.9-2.3
			c0.1-0.2,0.2-0.6,0.4-0.7c0.1,0,0.2-0.1,0.3-0.1c-0.1,0.9-0.1,3.6,1.3,3.6c0.3,0,0.8-0.2,1-0.4c0.2-0.2,0.4-0.4,0.6-0.6
			c0,0,0.1-0.1,0.1-0.2c0,0,0.1-0.1,0.1-0.2c0.3,1.2,1,1.9,2.7,1.4c1.6-0.4,4.3-3.1,3.3-5C125.7,24.9,123.9,24.7,122.7,25.6z
			 M95.1,26.9c-0.5,0.9-1.3,1.5-2,2.1c-1.1,0.9-3.9,1.6-2.6-0.7c0.4-0.6,0.8-1.2,1.3-1.7c0.3-0.4,0.7-0.7,1-1.1
			c0.4-0.3,0.8-0.7,1.3-0.7c0.6,0,1.1,0.5,1.2,1c0,0.1,0,0.9,0.1,0.8C95.3,26.7,95.2,26.8,95.1,26.9z M123.5,29.9
			c-0.2,0.1-0.6,0.3-0.9,0.3c0,0,0,0-0.1,0c-0.2-0.1-0.4-0.6-0.4-0.7c-0.1-0.3-0.1-0.7-0.1-1c0-0.7,0.3-1.3,0.9-1.8
			c0.2-0.2,0.6-0.4,0.9-0.5c0.6-0.1,1,0.5,1.2,1C125.3,28.4,124.4,29.5,123.5,29.9z"/>
		<path class="st2" d="M210.7,29c-0.3-1.8-2.2-3.3-4-3.1c-0.8,0.1-1.5,0.9-2.1,1.4c-0.3,0.2-0.5,0.5-0.7,0.8c-0.4-0.6-1.5,0-1.3,0.7
			c0,0.1,0.1,0.2,0.1,0.3c-1.3,0.3-1.9,0-1.8-0.9c0-0.3,0-0.6,0-0.9c0-0.9-1.2-0.5-1.3,0.1c-0.3,1.2-1,2.7-2.4,2.6
			c-1.8,0-0.9-2.7-0.7-3.5c0.2-0.8-0.8-0.9-1.2-0.4c-0.1,0.1-0.4,0.9-0.5,1c-0.2-0.4-0.6-0.7-1.1-1c-2-1.2-7.2-0.7-7.1,2.5
			c0,0.6,0.2,1.1,0.4,1.5c-0.6,0.5-1.5,0.2-2.3-0.2c-1.2-0.7-1-3-1.8-4.1c-0.2-0.3-0.7-0.3-0.9,0c-1,0.9-1.3,2.1-1.9,3.1
			c-0.3-0.9-0.4-1.9-0.4-2.9c0-0.9-1.3-0.5-1.3,0.3c0,1.6,0.2,2.8,0.8,4.3c0.2,0.4,0.7,0.5,1,0.2c1-0.9,1.3-2.2,2-3.2
			c0.4,1,0.4,2.2,1.1,3.1c0.5,0.7,1.7,1.3,2.5,1.3c0.9,0.1,1.5,0.1,2.2-0.6c0-0.1,0.1-0.1,0.2-0.2c0.7,0.2,1.5,0.1,2.3-0.1
			c0.2,0.1,0.4,0.2,0.7,0.3c1.7,0.5,3.1-0.2,3.7-1.3c0.3,0.9,0.9,1.5,2.1,1.6c1.3,0.1,2.2-0.6,2.9-1.6c0.5,1.3,1.8,1.7,3.7,0.4
			c0,0,0,0,0.1-0.1C206.2,31.6,211.2,31.8,210.7,29z M191.2,29.3c-1-0.4-2-0.8-2.7-0.6c-0.3-0.5-0.1-1.2,0.8-1.7
			c1.3-0.7,4-0.5,4.7,0.9C193.1,28.5,192.2,29,191.2,29.3z M192.9,29.8c0.4-0.2,0.8-0.4,1.1-0.6C193.8,29.7,193.4,29.9,192.9,29.8z
			 M207.2,29.8c-0.7,0-1.7-0.2-2.3-0.6c1.1-1.2,2.2-2.7,3.7-1C209.8,29.5,208.2,29.8,207.2,29.8z"/>
		<path class="st2" d="M150.5,24.5c-2.4-0.3-6,2-6.2,4.6c-0.3,0.1-0.6,0.3-0.9,0.4c-2.8,1.3-2.2-2.4-2.1-3.2c0-0.9-1-0.9-1.3-0.2
			c-0.4,0.9-1,1.9-1.7,2.6c-0.5,0.5-0.3-2.8-0.4-2.8c0-0.2,0-0.5,0.1-0.7c1.8-1.9,5.2-5.8,3.5-8.4c-0.5-0.9-1.3-1.2-2-0.4
			c-0.7,0.7-1.2,1.8-1.5,2.7c-0.4,1.2-0.6,2.6-1,3.8c-0.8,2.2-2,4-3.9,5.6c-0.9,0.8-1.8,1.4-2.9,1.9c-0.3,0.1-0.8,0.3-1.1,0.2
			c-0.3-0.1-0.3-0.3-0.3-0.6c0-0.5,0.2-1.2,0.4-1.7c0.3-0.6,0.6-1.4,1.2-1.8c0.3-0.2,0.7-0.1,1,0c-0.3,0.9,1,1.2,1.3,0.4
			c0.7-2.1-1.5-2.7-3-1.5c-1.3,1.1-3.3,4.6-1.8,6.1c1.7,1.6,4.8-1,6-2.1c0.9-0.7,1.6-1.5,2.3-2.3c0,1.1,0.2,2.2,0.8,2.9
			c0.8,0.9,1.9-0.1,2.8-1.3c0.1,1,0.5,1.8,1.8,2.4c0.7,0.3,1.6-0.1,2.2-0.4c0.3-0.1,0.6-0.2,0.8-0.3c0.5,0.6,1.5,0.8,2.3,0.7
			c0.5-0.1,1.1-0.3,1.5-0.5c0.6-0.3,1.2-0.2,1.7-0.6c0.5-0.4,0.9-0.9,1.3-1.4c0.1-0.2,0.2-0.4,0.3-0.6
			C152.5,26.6,152.4,24.8,150.5,24.5z M138.7,22.2c0.3-1.2,0.5-2.3,0.9-3.4c0.2-0.4,0.4-0.9,0.6-1.2c0.4-0.6,0.4,0.8,0.4,1
			C140.4,19.9,139.6,21.2,138.7,22.2C138.7,22.2,138.7,22.2,138.7,22.2z M149.1,28.8c-1.1,0.1-2.3,0-2.9-0.1c-0.1,0-0.2,0-0.4,0
			c0-0.2,0.1-0.4,0.2-0.5c0.5-0.8,1.4-1.4,2.2-1.9c0.7-0.4,2-0.9,2.6,0.1c0.1,0.3,0.2,0.5,0.3,0.7C150.4,27.6,149.8,28.3,149.1,28.8
			z"/>
		<path class="st2" d="M163.3,25.2c-0.8,0.4-1.4,1.2-2.1,1.8c-0.4,0.4-0.8,0.7-1.2,1.1c-1.8,1.6-1.8-1.9-2.5-2.9
			c-0.2-0.3-0.7-0.3-0.9,0c-1,0.9-1.3,2.1-1.9,3.1c-0.3-0.9-0.4-1.9-0.4-2.9c0-0.9-1.3-0.5-1.3,0.3c0,1.6,0.2,2.8,0.8,4.3
			c0.2,0.4,0.7,0.5,1,0.2c1-0.9,1.3-2.2,2-3.2c-0.2,0.2,0.4,1.7,0.5,2c0.2,0.5,0.4,1,0.9,1.3c1,0.6,2.2-0.3,2.9-1
			c0.4-0.4,0.9-0.8,1.3-1.2c0.5-0.5,1.2-1.2,1.9-1.2c1.2,0,2.3,1.4,2.5,2.4c0,0.2,0,0.5,0,0.7c0,0.1-0.2,0.4-0.4,0.5
			c-0.5,0.2-3.1,0-2.4-0.7c0.6-0.6-0.2-1.5-0.9-0.9c-2.6,2.6,2.9,3.9,4.7,2.2c1.5-1.4-0.3-3.8-1.2-4.9
			C165.8,25.2,164.3,24.7,163.3,25.2z"/>
	</g>
</g>
</svg>
